<svg width="12" height="12" viewBox="0 0 12 12" fill="none" xmlns="http://www.w3.org/2000/svg">
<path d="M4.88644 9.60588C5.91134 9.60588 6.85645 9.27448 7.62973 8.72214L10.5387 11.6311C10.6737 11.7662 10.8517 11.8337 11.042 11.8337C11.4409 11.8337 11.7232 11.5268 11.7232 11.134C11.7232 10.9499 11.6618 10.7781 11.5268 10.6431L8.63622 7.74634C9.24379 6.94851 9.60588 5.96043 9.60588 4.88644C9.60588 2.29044 7.48244 0.166992 4.88644 0.166992C2.29657 0.166992 0.166992 2.2843 0.166992 4.88644C0.166992 7.48244 2.29044 9.60588 4.88644 9.60588ZM4.88644 8.58712C2.86119 8.58712 1.18575 6.91169 1.18575 4.88644C1.18575 2.86119 2.86119 1.18575 4.88644 1.18575C6.91169 1.18575 8.58712 2.86119 8.58712 4.88644C8.58712 6.91169 6.91169 8.58712 4.88644 8.58712Z" fill="#8585A1"/>
</svg>
